<?xml version="1.0" encoding="UTF-8" standalone="no"?>
<!-- Created with Inkscape (http://www.inkscape.org/) -->

<svg
   version="1.1"
   id="svg2"
   width="1586.6533"
   height="1211.76"
   viewBox="0 0 1586.6533 1211.76"
   sodipodi:docname="reshot-illustration-students-doing-homework-FD682GRQN4.eps"
   xmlns:inkscape="http://www.inkscape.org/namespaces/inkscape"
   xmlns:sodipodi="http://sodipodi.sourceforge.net/DTD/sodipodi-0.dtd"
   xmlns="http://www.w3.org/2000/svg"
   xmlns:svg="http://www.w3.org/2000/svg">
  <defs
     id="defs6" />
  <sodipodi:namedview
     id="namedview4"
     pagecolor="#ffffff"
     bordercolor="#000000"
     borderopacity="0.25"
     inkscape:showpageshadow="2"
     inkscape:pageopacity="0.0"
     inkscape:pagecheckerboard="0"
     inkscape:deskcolor="#d1d1d1" />
  <g
     id="g8"
     inkscape:groupmode="layer"
     inkscape:label="ink_ext_XXXXXX"
     transform="matrix(1.3333333,0,0,-1.3333333,0,1211.76)">
    <g
       id="g10"
       transform="scale(0.1)">
      <path
         d="M 5804.84,7430.16 C 4477.23,8439.14 655.648,7123.52 1948.69,3788.57"
         style="fill:none;stroke:#a4c8ec;stroke-width:36.9121;stroke-linecap:butt;stroke-linejoin:miter;stroke-miterlimit:10;stroke-dasharray:147.649, 147.649;stroke-dashoffset:0;stroke-opacity:1"
         id="path12" />
      <path
         d="m 7494.23,2284.26 c 1581.74,527.91 2649.07,4426.12 -834.46,5237.82"
         style="fill:none;stroke:#a4c8ec;stroke-width:36.9121;stroke-linecap:butt;stroke-linejoin:miter;stroke-miterlimit:10;stroke-dasharray:147.649, 147.649;stroke-dashoffset:0;stroke-opacity:1"
         id="path14" />
      <path
         d="m 9364.06,5997.62 c 0,0 232.4,398.35 531.17,248.98 298.77,-149.41 182.57,-381.77 365.17,-448.17 182.6,-66.42 747,99.55 1062.3,33.18 315.4,-66.39 420.5,-248.6 431.6,-448.15 16.6,-298.77 -359.6,-697.17 -166,-813.34 498,-298.78 13.3,-559.23 -282.2,-697.13 -498,-232.41 -1942.04,-182.6 -1925.42,49.77 16.62,232.4 -265.58,82.99 -497.96,66.4 -232.37,-16.59 -33.18,597.55 149.39,780.13 182.57,182.6 182.57,514.56 82.99,680.57 -99.58,165.97 -348.58,630.73 248.96,547.76"
         style="fill:#212a53;fill-opacity:1;fill-rule:nonzero;stroke:none"
         id="path16" />
      <path
         d="m 5042.09,5181.31 c 115.09,-333.14 193.7,-1031.91 323.47,-1428.74 h 1582.52 l 104.09,851.15 c 0,0 383.89,-30.09 415.87,70.37 242.59,762.41 473.62,1490.71 -436.1,1975.88 -193.82,103.4 -1389.14,69.6 -1389.14,69.6 0,0 -785.53,-139.56 -1740.44,-1461.31 -31.79,-44.04 1006.84,307.92 1139.73,-76.95"
         style="fill:#212a53;fill-opacity:1;fill-rule:nonzero;stroke:none"
         id="path18" />
      <path
         d="m 6078.91,6303.96 c 225.27,-25.99 429.82,85.37 552.65,390.86 -171.86,69.39 -339.32,243.21 -346.42,485.16 -10.45,354.29 -406.44,31.26 -406.44,31.26 0,0 87.57,-387.44 -77.03,-517.4 -43.33,-164.63 81.33,-367.28 277.24,-389.88"
         style="fill:#f6ab7a;fill-opacity:1;fill-rule:nonzero;stroke:none"
         id="path20" />
      <path
         d="m 5548.69,7593.36 c 0,0 -541.88,131.98 -395.98,465.47 145.88,333.47 159.75,118.09 166.74,257.05 6.93,138.94 -69.5,451.57 118.08,409.91 187.57,-41.7 326.53,-27.81 521.08,83.35 194.52,111.15 291.76,187.57 354.28,-20.83 62.52,-208.43 55.62,-180.65 277.88,-201.49 222.34,-20.85 284.86,-62.52 208.43,-180.63 -76.4,-118.12 -187.56,-159.79 -83.38,-277.9 104.23,-118.09 125.09,-236.19 41.73,-319.57 -83.4,-83.38 -455.07,-239.68 -455.07,-239.68 l -753.79,24.32"
         style="fill:#212a50;fill-opacity:1;fill-rule:nonzero;stroke:none"
         id="path22" />
      <path
         d="m 6389.33,7852.74 c 0,0 175.87,116.61 217.76,30.15 41.91,-86.46 21.83,-236.87 -44.31,-310.35 -66.12,-73.5 -144.71,-175.67 -195.69,-5.66 -50.99,169.99 22.24,285.86 22.24,285.86"
         style="fill:#ed8656;fill-opacity:1;fill-rule:nonzero;stroke:none"
         id="path24" />
      <path
         d="m 5429.15,7521.42 c 0,0 -81.91,221.29 90.65,200.27 95.37,-11.61 211.97,-107.89 238.87,-203.02 26.91,-95.12 71.37,-216.12 -99.59,-168.54 -170.98,47.56 -229.93,171.29 -229.93,171.29"
         style="fill:#ed8656;fill-opacity:1;fill-rule:nonzero;stroke:none"
         id="path26" />
      <path
         d="m 6314.64,7021.53 c -17.27,48.78 -27.84,101.72 -29.5,158.45 -10.45,354.29 -406.44,31.26 -406.44,31.26 0,0 113.56,-586.71 435.94,-189.71"
         style="fill:#ed8656;fill-opacity:1;fill-rule:nonzero;stroke:none"
         id="path28" />
      <path
         d="m 5503.52,7753.13 c 0,0 132.98,-486.66 364.75,-666.93 156.33,-121.58 392.54,-24.32 531.47,232.72 136.1,251.74 83.41,1121.99 -187.57,986.53 -270.95,-135.46 -41.69,177.14 -187.57,72.95 -145.9,-104.2 93.78,-510.63 -521.08,-625.27"
         style="fill:#f6ab7a;fill-opacity:1;fill-rule:nonzero;stroke:none"
         id="path30" />
      <path
         d="m 5968.02,7667.38 c 0,-108.2 -87.72,-195.91 -195.89,-195.91 -108.22,0 -195.93,87.71 -195.93,195.91 0,108.19 87.71,195.91 195.93,195.91 108.17,0 195.89,-87.72 195.89,-195.91 z"
         style="fill:none;stroke:#212a50;stroke-width:13.4275;stroke-linecap:butt;stroke-linejoin:miter;stroke-miterlimit:10;stroke-dasharray:none;stroke-opacity:1"
         id="path32" />
      <path
         d="m 6408.84,7755.55 c 0,-108.2 -87.76,-195.93 -195.94,-195.93 -108.21,0 -195.92,87.73 -195.92,195.93 0,108.2 87.71,195.91 195.92,195.91 108.18,0 195.94,-87.71 195.94,-195.91 z"
         style="fill:none;stroke:#212a50;stroke-width:13.4275;stroke-linecap:butt;stroke-linejoin:miter;stroke-miterlimit:10;stroke-dasharray:none;stroke-opacity:1"
         id="path34" />
      <path
         d="m 5952.29,7698.1 102.96,16.28"
         style="fill:none;stroke:#212a50;stroke-width:13.4275;stroke-linecap:butt;stroke-linejoin:miter;stroke-miterlimit:10;stroke-dasharray:none;stroke-opacity:1"
         id="path36" />
      <path
         d="m 5972.48,7263.36 c 0,0 177.18,-52.12 312.66,177.14"
         style="fill:none;stroke:#212a50;stroke-width:13.4275;stroke-linecap:butt;stroke-linejoin:miter;stroke-miterlimit:10;stroke-dasharray:none;stroke-opacity:1"
         id="path38" />
      <path
         d="M 11899.9,28.2305 H 0"
         style="fill:none;stroke:#8fb0e1;stroke-width:56.4603;stroke-linecap:butt;stroke-linejoin:miter;stroke-miterlimit:10;stroke-dasharray:none;stroke-opacity:1"
         id="path40" />
      <path
         d="M 8822.23,487.352 C 8822.23,259.68 8637.6,74.9297 8409.82,74.9297 H 4835.16 c -227.71,0 -412.37,184.7503 -412.37,412.4223 V 5711.79 c 0,227.64 184.66,412.44 412.37,412.44 H 7309.91 L 8822.23,4611.96 V 487.352"
         style="fill:#edf9fe;fill-opacity:1;fill-rule:nonzero;stroke:none"
         id="path42" />
      <path
         d="m 7447.44,4749.33 1374.79,-1356.9 v 1219.53 l -137.49,137.37 h -1237.3"
         style="fill:#d9f0fb;fill-opacity:1;fill-rule:nonzero;stroke:none"
         id="path44" />
      <path
         d="M 7309.91,6124.23 V 5024.42 c 0,-227.8 184.73,-412.46 412.53,-412.46 H 8822.23 L 7309.91,6124.23"
         style="fill:#8fb0e1;fill-opacity:1;fill-rule:nonzero;stroke:none"
         id="path46" />
      <path
         d="M 7997.35,2549.63 H 5247.64 v 274.93 h 2749.71 v -274.93"
         style="fill:#cbe6f8;fill-opacity:1;fill-rule:nonzero;stroke:none"
         id="path48" />
      <path
         d="M 7997.35,1999.63 H 5247.64 v 275.06 h 2749.71 v -275.06"
         style="fill:#cbe6f8;fill-opacity:1;fill-rule:nonzero;stroke:none"
         id="path50" />
      <path
         d="M 7997.35,1449.74 H 5247.64 v 274.96 h 2749.71 v -274.96"
         style="fill:#cbe6f8;fill-opacity:1;fill-rule:nonzero;stroke:none"
         id="path52" />
      <path
         d="M 7309.91,3099.57 H 5247.64 v 274.98 h 2062.27 v -274.98"
         style="fill:#cbe6f8;fill-opacity:1;fill-rule:nonzero;stroke:none"
         id="path54" />
      <path
         d="m 2477.73,2695.59 c 0,0 -28.49,-83.82 114.59,-199.99 143.05,-116.14 437.64,-70.05 630.99,289.94 193.38,360 408.01,185.75 552.18,460.88 144.28,275.1 -169.74,865.75 -446.83,841.14 -277.14,-24.58 -167.59,-306.62 -157.13,-439.93 10.47,-133.3 221.87,-287.11 285.25,-160.28 63.41,126.81 -166.82,1032.26 -609.57,1101 -298.62,46.38 -383.54,-9.5 -421.34,-299.7 -27.52,-211.39 -119.5,-366.48 -406.22,-329.8 -369.18,47.24 -326.19,-114.17 -262.58,-250.34 93.95,-201.03 303.04,-406.45 148.32,-548.28 -154.69,-141.79 237.91,-389.22 572.34,-464.64"
         style="fill:#212a50;fill-opacity:1;fill-rule:nonzero;stroke:none"
         id="path56" />
      <path
         d="m 2915.22,974.922 c 0,0 239.52,-855.391 479.02,-889.6095 C 3633.75,51.1094 3291.59,1351.29 3257.37,1476.76 3223.16,1602.2 2915.22,974.922 2915.22,974.922"
         style="fill:#ed8656;fill-opacity:1;fill-rule:nonzero;stroke:none"
         id="path58" />
      <path
         d="m 2504.64,2377.75 c 0,0 250.92,57.02 490.42,-148.27 239.51,-205.29 380.17,-786.95 380.17,-786.95 l -486.63,-669.1 -498.02,646.28 c 0,0 -319.34,1015.06 114.06,958.04"
         style="fill:#de1d25;fill-opacity:1;fill-rule:nonzero;stroke:none"
         id="path60" />
      <path
         d="m 3188.94,2959.41 c 0,0 91.24,-216.7 79.85,-285.13 -11.42,-68.43 -102.66,-273.73 -102.66,-273.73 L 3610.94,689.781 c 0,0 22.81,-456.211 -102.65,-570.25 -125.46,-114.03881 -136.85,-68.4216 -239.5,22.801 -102.66,91.238 -193.9,1368.618 -228.11,1813.438 -34.22,444.78 -79.83,615.88 -79.83,615.88 0,0 114.04,68.43 159.67,91.24 45.61,22.81 57.01,262.31 68.42,296.52"
         style="fill:#f6ab7a;fill-opacity:1;fill-rule:nonzero;stroke:none"
         id="path62" />
      <path
         d="m 3040.68,2982.22 c -34.22,-22.81 -342.16,-319.33 -330.75,-661.5 11.41,-342.14 34.22,-342.14 22.81,-456.2 -11.4,-114.05 34.21,-467.62 -228.1,-661.5 -73.95,-54.65 -182.48,570.27 -285.13,889.6 -76.86,239.14 -228.1,239.51 102.65,536.04 330.75,296.54 387.77,581.66 410.58,729.94 22.82,148.25 307.94,-376.38 307.94,-376.38"
         style="fill:#f6ab7a;fill-opacity:1;fill-rule:nonzero;stroke:none"
         id="path64" />
      <path
         d="m 2025.62,2411.96 c 0,0 -279.04,257.92 -718.52,-840.79 C 1215.86,1343.07 725.438,46.082 725.438,46.082 H 2618.69 c 0,0 171.07,738.141 262.31,989.048 91.24,250.91 -159.66,1260.58 -159.66,1260.58 l -22.82,-662.29 c 0,0 -433.4,1124.51 -672.9,778.54"
         style="fill:#ee222d;fill-opacity:1;fill-rule:nonzero;stroke:none"
         id="path66" />
      <path
         d="M 1729.1,1522.37 2151.07,142.332 c 0,0 57.03,-136.83981 387.77,-34.199 389.26,120.789 1608.14,399.18 1608.14,399.18 0,0 57.02,-57.032 136.87,-159.692 79.83,-102.629 262.31,-17.101 262.31,-17.101 l 114.05,-85.528 c 0,0 105.25,-62.73 153.98,-62.73 34.2,0 -382.08,359.258 -382.08,359.258 L 4015.83,672.68 2618.69,541.52 2253.72,1784.69 1729.1,1522.37"
         style="fill:#f6ab7a;fill-opacity:1;fill-rule:nonzero;stroke:none"
         id="path68" />
      <path
         d="m 5359.47,667.313 c -6.4,-24.352 -31.31,-38.954 -55.7,-32.571 l -187.56,49.117 c -24.36,6.391 -38.96,31.321 -32.58,55.692 l 713.55,2725.209 c 6.38,24.38 31.33,38.96 55.7,32.58 l 187.55,-49.13 c 24.38,-6.37 38.96,-31.3 32.58,-55.67 L 5359.47,667.313"
         style="fill:#445fb5;fill-opacity:1;fill-rule:nonzero;stroke:none"
         id="path70" />
      <path
         d="M 6041.31,3424.24 5327.77,699.012 c -6.39,-24.36 -31.31,-38.949 -55.7,-32.571 l -187.55,49.11"
         style="fill:none;stroke:#3a52ac;stroke-width:22.5232;stroke-linecap:butt;stroke-linejoin:miter;stroke-miterlimit:10;stroke-dasharray:none;stroke-opacity:1"
         id="path72" />
      <path
         d="m 5690.15,2035.11 c 0,0 624,-1579.598 624,-1732.567 0,-201.023 -159.86,-224.7617 -159.86,-224.7617 h -717.72"
         style="fill:none;stroke:#3a52ac;stroke-width:45.0464;stroke-linecap:butt;stroke-linejoin:miter;stroke-miterlimit:10;stroke-dasharray:none;stroke-opacity:1"
         id="path74" />
      <path
         d="m 5230.53,46.082 v 37.9805 c 0,25.1995 -3.38,25.4105 -28.57,25.4105 H 4072.85 c -25.2,0 -78.54,-0.211 -78.54,-25.4105 V 46.082 h 1236.22"
         style="fill:#3a52ac;fill-opacity:1;fill-rule:nonzero;stroke:none"
         id="path76" />
      <path
         d="m 2732.74,3358.6 c -15.95,-103.69 -48.78,-274.33 -180.09,-468.97 5.24,-258.99 65.06,-496.03 162.03,-682.53 -1.7,33.09 -3.33,70.65 -4.75,113.62 -11.41,342.17 296.53,638.69 330.75,661.5 0,0 -285.12,524.63 -307.94,376.38"
         style="fill:#ed8656;fill-opacity:1;fill-rule:nonzero;stroke:none"
         id="path78" />
      <path
         d="m 3240.56,2820.13 c -23.15,71.64 -51.62,139.28 -51.62,139.28 -11.41,-34.21 -22.81,-273.71 -68.42,-296.52 -45.63,-22.81 -159.67,-91.24 -159.67,-91.24 0,0 18,-67.61 39.87,-228.15 122.23,95.31 212.32,269.21 239.84,476.63"
         style="fill:#ed8656;fill-opacity:1;fill-rule:nonzero;stroke:none"
         id="path80" />
      <path
         d="M 2797.72,275.891 C 2492.35,219.18 2277.05,184.09 2127.29,220.102 l 23.78,-77.77 c 0,0 57.03,-136.83981 387.77,-34.199 363.48,112.789 1450.12,362.937 1592.54,395.597 -65.75,33.661 -778.95,-124.828 -1333.66,-227.839"
         style="fill:#ed8656;fill-opacity:1;fill-rule:nonzero;stroke:none"
         id="path82" />
      <path
         d="m 3816.23,712.602 102.65,-422"
         style="fill:none;stroke:#77ade1;stroke-width:40.5203;stroke-linecap:butt;stroke-linejoin:miter;stroke-miterlimit:10;stroke-dasharray:none;stroke-opacity:1"
         id="path84" />
      <path
         d="m 3724.98,701.191 57.03,-433.402"
         style="fill:none;stroke:#ee222d;stroke-width:40.5203;stroke-linecap:butt;stroke-linejoin:miter;stroke-miterlimit:10;stroke-dasharray:none;stroke-opacity:1"
         id="path86" />
      <path
         d="m 1840.08,1159.39 c 165.66,64.46 397.66,141.08 556.85,137.48 l -102.79,350.1 -546.13,-186.49 92.07,-301.09"
         style="fill:#ed8656;fill-opacity:1;fill-rule:nonzero;stroke:none"
         id="path88" />
      <path
         d="m 1261.47,1077.56 1186.13,444.81 c 0,0 -11.39,729.91 -159.66,1003.64 -75.66,139.69 -266.22,128.82 -570.25,-228.09 -262.33,-307.95 -456.22,-1220.36 -456.22,-1220.36"
         style="fill:#de1d25;fill-opacity:1;fill-rule:nonzero;stroke:none"
         id="path90" />
      <path
         d="m 3229.28,3743.42 c 0,0 293.83,-1484.23 -510.37,-1089.05 -325.29,159.84 -299.48,316.26 -299.43,430.25 0.03,114.01 -178.89,-7.43 -133.07,203.89 45.81,211.35 106.55,178.88 164.75,54.06 58.21,-124.83 111.49,-92.4 173.92,50.7 62.47,143.1 -61.5,229.67 213.06,129.75 274.56,-99.93 411.86,-35.89 391.14,220.4"
         style="fill:#f6ab7a;fill-opacity:1;fill-rule:nonzero;stroke:none"
         id="path92" />
      <path
         d="m 10555,1556.65 299.6,-579.759 c 0,0 209.8,-774.18 200.1,-931.559 -0.7,-11.1328 -981.5,0 -981.5,0 L 9950.18,316.051 9794.08,50.6797 h -936.51 c 0,0 379.06,1146.1503 457.1,1592.0903 78.06,445.97 919.83,259.5 1240.33,-86.12"
         style="fill:#445fb5;fill-opacity:1;fill-rule:nonzero;stroke:none"
         id="path94" />
      <path
         d="m 9180.88,4215.72 c 0,0 -261.97,-22.31 -334.47,-529.58 -72.49,-507.29 -16.7,-1259.86 139.37,-1287.72 156.08,-27.9 585.32,105.9 484.97,618.77 -100.33,512.86 -289.87,1198.53 -289.87,1198.53"
         style="fill:#de1d25;fill-opacity:1;fill-rule:nonzero;stroke:none"
         id="path96" />
      <path
         d="m 10017.1,4254.74 c 206,25.1 735.8,-209.06 735.8,-209.06 0,0 -434.8,-1875.82 -133.8,-2489.03 301,-613.209 -1349.05,0 -1349.05,0 l 78.06,1304.46 c 0,0 -178.38,1293.28 -189.55,1349.03 -11.15,55.75 256.43,-22.28 323.34,-89.19 66.86,-66.9 397.53,117.04 535.2,133.79"
         style="fill:#ee222d;fill-opacity:1;fill-rule:nonzero;stroke:none"
         id="path98" />
      <path
         d="m 10585.7,4112.6 c 217.3,0 443.1,-16.73 468.3,-735.83 21.5,-618.41 -142.2,-1404.84 -334.5,-1438.28 -192.4,-33.44 -250.9,66.88 -342.9,183.97 -92,117.05 33.5,1990.14 209.1,1990.14"
         style="fill:#de1d25;fill-opacity:1;fill-rule:nonzero;stroke:none"
         id="path100" />
      <path
         d="m 10033.8,5202.44 c 0,0 -144.87,-824.61 275.9,-997.88 142.2,-58.54 163.2,-109.9 142.2,-158.88 -89.1,-207.33 -485.01,-459.88 -841.78,-326.11 -356.78,133.8 -312.18,479.43 -312.18,479.43 0,0 390.24,-167.24 390.24,312.16 0,479.42 -189.6,735.83 -189.6,735.83 l 535.22,-44.55"
         style="fill:#f6ab7a;fill-opacity:1;fill-rule:nonzero;stroke:none"
         id="path102" />
      <path
         d="m 9685.99,4599.31 c -21,422.64 -187.41,647.68 -187.41,647.68 l 535.22,-44.55 c 0,0 -33.1,-188.56 -21.7,-404.22 -17.09,-47.56 -36.55,-88.85 -57.87,-120.96 -80.46,-121.14 -179.11,-127.91 -268.24,-77.95"
         style="fill:#ed8656;fill-opacity:1;fill-rule:nonzero;stroke:none"
         id="path104" />
      <path
         d="m 9955.73,5826.77 c 0,0 -133.76,100.36 -245.29,-156.09 -111.48,-256.42 -178.33,-267.56 -234.11,-267.56 -55.74,0 -11.17,-189.52 78.03,-334.49 89.22,-144.93 278.79,-267.58 412.53,-100.34 133.81,167.25 189.61,657.81 -11.16,858.48"
         style="fill:#f6ab7a;fill-opacity:1;fill-rule:nonzero;stroke:none"
         id="path106" />
      <path
         d="M 9571.1,876.539 9950.18,319.102"
         style="fill:none;stroke:#ffffff;stroke-width:11.8832;stroke-linecap:butt;stroke-linejoin:miter;stroke-miterlimit:10;stroke-dasharray:none;stroke-opacity:1"
         id="path108" />
      <path
         d="m 10496.5,1244.44 223,-457.1 133.8,-742.008"
         style="fill:none;stroke:#ffffff;stroke-width:11.8832;stroke-linecap:butt;stroke-linejoin:miter;stroke-miterlimit:10;stroke-dasharray:none;stroke-opacity:1"
         id="path110" />
      <path
         d="m 10306.9,1110.65 c 0,0 -11.1,-234.111 412.6,-323.31"
         style="fill:none;stroke:#ffffff;stroke-width:11.8832;stroke-linecap:butt;stroke-linejoin:miter;stroke-miterlimit:10;stroke-dasharray:none;stroke-opacity:1"
         id="path112" />
      <path
         d="m 8303.66,4805.42 c 44.96,126.77 116.76,238.81 116.76,238.81 0,0 10.69,-43.32 -12.73,-126.2 -27.2,-96.06 -87.68,-236.72 -62.26,-296.3 45.14,-104.56 30.31,-123.98 51.44,-62.26 20.94,61.99 -9.97,160.36 83.97,267.66 1.02,1.1 -22.36,-141.02 -23.11,-275.26 -0.85,-116.12 -69.87,-264.08 -19.67,-497.49 164.35,-309.54 402.14,-758.37 534.15,-1130.73 141.76,-399.81 191.8,-521.46 58.14,-533.61 -275.94,-25.09 -402.14,305.58 -443.16,459.89 -76.62,288.06 -232.8,1169.23 -232.8,1169.23 -0.69,1.43 -1.4,2.88 -2.17,4.32 -67.79,137.55 -131.92,341.21 -131.48,413.27 0.11,39.49 28.87,215.44 82.92,368.67"
         style="fill:#f6ab7a;fill-opacity:1;fill-rule:nonzero;stroke:none"
         id="path114" />
      <path
         d="m 8231.73,4422.73 c 0,0 -27.38,248.73 -13.74,298.72 9.45,34.89 80.78,191.33 80.78,191.33 0,0 17.5,-90.58 -7.63,-155.06 -25.01,-64.5 -59.41,-334.99 -59.41,-334.99"
         style="fill:#f6ab7a;fill-opacity:1;fill-rule:nonzero;stroke:none"
         id="path116" />
      <path
         d="m 8710.48,2707.03 c 13.49,-36.94 54.32,-67.68 91.26,-67.68 h 535.16 c 36.93,0 56,30.74 42.53,67.68 l -346.93,958.03 c -13.47,36.93 -54.3,71.66 -91.23,71.66 H 8406.1 c -36.96,0 -56.03,-34.73 -42.56,-71.66 l 346.94,-958.03"
         style="fill:#212a53;fill-opacity:1;fill-rule:nonzero;stroke:none"
         id="path118" />
      <path
         d="m 9180.88,3234.6 c 0,0 66.9,-117.08 22.31,-128.23 -44.63,-11.15 -323.34,144.96 -323.34,144.96 l -89.22,11.15 218.84,-174.22 c 16.73,-8.37 -141.71,102.29 -225.76,137.96 -48.25,20.49 -81.2,9.89 -93.37,13.96 -33.47,11.15 288.47,-200.69 288.47,-200.69 l -136.57,44.58 c 0,0 -73.86,16.72 -37.65,-25.07 19.78,-22.79 50.17,-27.89 91.94,-86.42 41.88,-58.54 239.73,-231.52 439.04,-256.42 100.37,-12.54 167.24,-66.91 167.24,-66.91 l 940.69,-610.41 c 0,0 434.8,-75.27 384.7,167.23 -50.2,242.5 -873.81,497.55 -1170.68,593.69 -195.05,63.18 -209.05,117.07 -250.88,158.91 -41.77,41.79 -119.83,220.18 -225.76,275.93"
         style="fill:#f6ab7a;fill-opacity:1;fill-rule:nonzero;stroke:none"
         id="path120" />
      <path
         d="m 8982.7,2964.91 -137.39,64.14"
         style="fill:#ffffff;fill-opacity:1;fill-rule:nonzero;stroke:none"
         id="path122" />
      <path
         d="m 8982.7,2964.91 -137.39,64.14"
         style="fill:none;stroke:#222760;stroke-width:11.8832;stroke-linecap:butt;stroke-linejoin:miter;stroke-miterlimit:10;stroke-dasharray:none;stroke-opacity:1"
         id="path124" />
      <path
         d="m 6345.65,5968.05 308.01,-201.63 c 0,0 117.39,-85.21 84.04,-96.83 -41.41,-14.44 -285.94,116.94 -285.94,116.94 0,0 -80.41,-16.47 -206.48,-69.04 -126.1,-52.61 -321.97,-1.5 -321.97,-1.5 0,0 -940.55,-1193.11 -1591.42,-1297.63 -650.93,-104.54 -718.29,11.56 -773.61,189.64 -55.27,178.04 44.38,590.06 544.9,729.03 635.14,176.41 1698.3,479.95 1698.3,479.95 l 358.59,254.87 212.49,-31.84 c 0,0 74.67,-78.89 116.97,-125.74"
         style="fill:#f6ab7a;fill-opacity:1;fill-rule:nonzero;stroke:none"
         id="path126" />
      <path
         d="m 3573.23,4563.54 c 56.78,-58.77 71.18,-98.55 180.86,-105.18 168.11,-10.13 737.64,182.36 1016.6,319.36 441.78,217.02 1129.82,939.74 1150.28,935.34 -50.42,-63.44 -956.51,-1193.13 -1589.08,-1294.7 -594.89,-95.56 -702.36,-6.75 -758.66,145.18"
         style="fill:#ed8656;fill-opacity:1;fill-rule:nonzero;stroke:none"
         id="path128" />
      <path
         d="m 8063.71,8991.45 -451.99,-313.65 -421.51,96.78 451.95,313.65 421.55,-96.78"
         style="fill:#6782ca;fill-opacity:1;fill-rule:nonzero;stroke:none"
         id="path130" />
      <path
         d="m 7358.8,8261.14 -168.59,513.44 421.51,-96.78 168.65,-513.44 -421.57,96.78"
         style="fill:#516dbe;fill-opacity:1;fill-rule:nonzero;stroke:none"
         id="path132" />
      <path
         d="M 7780.37,8164.36 7611.72,8677.8 8063.71,8991.45 8232.34,8478 7780.37,8164.36"
         style="fill:#395fb5;fill-opacity:1;fill-rule:nonzero;stroke:none"
         id="path134" />
      <path
         d="m 3276.21,7539.69 c -257.99,476.66 -754.26,707.71 -1274.35,426.21 -520.11,-281.51 -597.96,-823.31 -339.9,-1300.03 201.24,-371.83 531.84,-359.82 920.03,-548.46 76.84,-37.31 162.7,-300.55 162.7,-300.55 l 650.28,351.98 c 0,0 -173.5,215.82 -162.67,300.54 54.28,428.26 245.22,698.43 43.91,1070.31"
         style="fill:#fabb1c;fill-opacity:1;fill-rule:nonzero;stroke:none"
         id="path136" />
      <path
         d="m 2930.13,6122.81 c -536.46,260.7 -993.32,244.06 -1271.45,757.92 -59.8,110.48 -106.5,223.53 -139.49,336.98 -4.41,-181.51 45.02,-371.34 142.77,-551.84 201.24,-371.83 531.84,-359.82 920.03,-548.46 76.84,-37.31 162.7,-300.55 162.7,-300.55 l 298.26,161.44 c -35.2,67.47 -74.79,126.07 -112.82,144.51"
         style="fill:#f8a20e;fill-opacity:1;fill-rule:nonzero;stroke:none"
         id="path138" />
      <path
         d="m 2733.53,5810.84 48.52,-89.65 c 80.41,-148.58 266.06,-203.89 414.71,-123.44 l 134.51,72.81 c 148.59,80.47 203.82,266.13 123.39,414.71 l -48.48,89.6 -672.65,-364.03"
         style="fill:#3a52ac;fill-opacity:1;fill-rule:nonzero;stroke:none"
         id="path140" />
      <path
         d="m 2097.71,6937.93 30.01,190.19 175.91,-78.71 30.18,190.27 175.94,-78.7 30.35,190.39 175.95,-78.72 30.47,190.45 176.31,-78.53"
         style="fill:none;stroke:#f1db65;stroke-width:54.3462;stroke-linecap:butt;stroke-linejoin:miter;stroke-miterlimit:10;stroke-dasharray:none;stroke-opacity:1"
         id="path142" />
      <path
         d="m 2280.26,6884.59 389.71,-363.9 305.44,-564.34"
         style="fill:none;stroke:#f1db65;stroke-width:54.3462;stroke-linecap:butt;stroke-linejoin:miter;stroke-miterlimit:10;stroke-dasharray:none;stroke-opacity:1"
         id="path144" />
      <path
         d="m 2784.79,7157.69 91.55,-525.25 305.5,-564.39"
         style="fill:none;stroke:#f1db65;stroke-width:54.3462;stroke-linecap:butt;stroke-linejoin:miter;stroke-miterlimit:10;stroke-dasharray:none;stroke-opacity:1"
         id="path146" />
      <path
         d="m 3399.9,6021.3 -420.42,-227.53 -37.78,69.89 420.38,227.52 37.82,-69.88"
         style="fill:#445fb5;fill-opacity:1;fill-rule:nonzero;stroke:none"
         id="path148" />
      <path
         d="m 3350.41,5831.45 -302.65,-163.8 -37.81,69.85 302.66,163.84 37.8,-69.89"
         style="fill:#445fb5;fill-opacity:1;fill-rule:nonzero;stroke:none"
         id="path150" />
      <path
         d="m 10094.6,6487.61 c 0,-70.76 57.4,-128.07 128,-128.07 h 85.5 v -298.99 l 299,298.99 h 982.3 c 70.8,0 128.2,57.31 128.2,128.07 v 1067.82 c 0,70.78 -57.4,128.15 -128.2,128.15 h -1366.8 c -70.6,0 -128,-57.37 -128,-128.15 V 6487.61"
         style="fill:#cbe6f8;fill-opacity:1;fill-rule:nonzero;stroke:none"
         id="path152" />
      <path
         d="m 10403.7,7231.92 h 1067.5 v 82.12 h -1067.5 v -82.12"
         style="fill:#ffffff;fill-opacity:1;fill-rule:nonzero;stroke:none"
         id="path154" />
      <path
         d="m 10403.7,7026.63 h 1067.5 v 82.12 h -1067.5 v -82.12"
         style="fill:#ffffff;fill-opacity:1;fill-rule:nonzero;stroke:none"
         id="path156" />
      <path
         d="m 10403.7,6821.33 h 1067.5 v 82.11 h -1067.5 v -82.11"
         style="fill:#ffffff;fill-opacity:1;fill-rule:nonzero;stroke:none"
         id="path158" />
      <path
         d="m 8884.07,6939.34 c 0,-393.52 -318.99,-712.55 -712.55,-712.55 -393.56,0 -712.52,319.03 -712.52,712.55 0,393.51 318.96,712.59 712.52,712.59 393.56,0 712.55,-319.08 712.55,-712.59"
         style="fill:#8ed136;fill-opacity:1;fill-rule:nonzero;stroke:none"
         id="path160" />
      <path
         d="m 8007.44,6903.8 102.83,-102.83 308.42,308.46"
         style="fill:none;stroke:#ffffff;stroke-width:48.6687;stroke-linecap:butt;stroke-linejoin:miter;stroke-miterlimit:4;stroke-dasharray:none;stroke-opacity:1"
         id="path162" />
    </g>
  </g>
</svg>
