<?xml version="1.0" encoding="UTF-8" standalone="no"?>
<!-- Created with Inkscape (http://www.inkscape.org/) -->

<svg
   version="1.1"
   id="svg2"
   width="1696"
   height="1244.3467"
   viewBox="0 0 1696 1244.3467"
   sodipodi:docname="reshot-illustration-students-at-the-library-3ESJPLQFHR.eps"
   xmlns:inkscape="http://www.inkscape.org/namespaces/inkscape"
   xmlns:sodipodi="http://sodipodi.sourceforge.net/DTD/sodipodi-0.dtd"
   xmlns="http://www.w3.org/2000/svg"
   xmlns:svg="http://www.w3.org/2000/svg">
  <defs
     id="defs6">
    <clipPath
       clipPathUnits="userSpaceOnUse"
       id="clipPath18">
      <path
         d="M 6508.48,800.18 H 0 v 8532.45 h 6508.48 z"
         id="path16" />
    </clipPath>
  </defs>
  <sodipodi:namedview
     id="namedview4"
     pagecolor="#ffffff"
     bordercolor="#000000"
     borderopacity="0.25"
     inkscape:showpageshadow="2"
     inkscape:pageopacity="0.0"
     inkscape:pagecheckerboard="0"
     inkscape:deskcolor="#d1d1d1" />
  <g
     id="g8"
     inkscape:groupmode="layer"
     inkscape:label="ink_ext_XXXXXX"
     transform="matrix(1.3333333,0,0,-1.3333333,0,1244.3467)">
    <g
       id="g10"
       transform="scale(0.1)">
      <g
         id="g12">
        <g
           id="g14"
           clip-path="url(#clipPath18)">
          <path
             d="m 2681.21,6661.51 c -124.13,8.27 -216.88,133.47 -207.15,279.61 l 72.17,1083.87 c 25.48,33.22 53.53,60.3 83.98,78.31 149.61,85.8 313.98,74.86 451.15,-30.04 149.46,-117.9 196.24,-486.04 167.96,-666.18 -38.04,-258.42 -76.16,-517.1 -114.28,-775.78 l -453.83,30.21"
             style="fill:#f6ab7a;fill-opacity:1;fill-rule:nonzero;stroke:none"
             id="path20" />
          <path
             d="m 4213.57,6411.81 c 0,0 305.28,-215.1 528.09,-1511.97 222.81,-1296.83 81.01,-1247.51 81.01,-1247.51 l -40.35,-295.5 -567.32,-49.23 -324,1116.23 322.57,1987.98"
             style="fill:#b3bee2;fill-opacity:1;fill-rule:nonzero;stroke:none"
             id="path22" />
          <path
             d="m 3061.68,2388.06 c 0,0 440.69,-2521.111 899.79,-3627.63 407.03,-980.5 881.65,294.902 881.65,294.902 l -742.8,4230.278 -1224.25,92.8 c 0,0 -84.27,-31 185.61,-990.35"
             style="fill:#212a53;fill-opacity:1;fill-rule:nonzero;stroke:none"
             id="path24" />
          <path
             d="m 3163.79,3368.25 150.44,-1625.61 -212.16,-124.73 c 0,0 -122.91,-2414.781 -162.95,-2536.879 -229.62,-699.001 -823.53,-279.601 -904.54,-46.601 -81.01,232.898 -216.16,1957.332 -189.22,3215.55 27.05,1258.17 27.05,1258.17 27.05,1258.17 l 1291.38,-139.9"
             style="fill:#212a53;fill-opacity:1;fill-rule:nonzero;stroke:none"
             id="path26" />
          <path
             d="m 4230.47,6413.16 -893.39,403.28 -460.82,-137.83 -569.78,65.06 -628.12,-272.18 c 0,0 -283.33,-272.43 -20.13,-1147.82 263.39,-875.34 224.06,-2320.7 224.06,-2320.7 l 2280.03,-144.61 c 0,0 -154.7,3068.5 68.15,3554.8"
             style="fill:#d5dded;fill-opacity:1;fill-rule:nonzero;stroke:none"
             id="path28" />
          <path
             d="m 1858.75,6454.75 c 0,0 -383.69,135.35 -658.2,-356.59 C 732.484,5259.77 602.324,4297.89 571.215,4110.85 c -30.973,-187.32 -21.172,-730.82 252.508,-844.77 274.017,-114.03 572.217,-35.09 572.217,-35.09 l 272.4,791.65 -195.78,59.59 -14.38,3.62 c 0,0 110.45,379.78 320.14,1002.08 209.74,621.95 80.43,1366.82 80.43,1366.82"
             style="fill:#d5dded;fill-opacity:1;fill-rule:nonzero;stroke:none"
             id="path30" />
          <path
             d="m 2763.61,6698.34 -225.29,-246.07 -225.34,324.77 135.19,200.15 315.44,-278.85"
             style="fill:#b3bee2;fill-opacity:1;fill-rule:nonzero;stroke:none"
             id="path32" />
          <path
             d="m 3258.37,6957.79 -433.3,-279.18 204.73,-245.89 338.23,383.72 -109.66,141.35"
             style="fill:#b3bee2;fill-opacity:1;fill-rule:nonzero;stroke:none"
             id="path34" />
          <path
             d="m 2726.04,7032.48 c -124.13,8.27 -216.87,133.47 -207.14,279.61 l 72.16,1083.87 c 25.49,33.22 53.53,60.31 83.98,78.31 149.62,85.8 313.99,74.86 451.15,-30.04 149.46,-117.89 196.24,-486.04 167.97,-666.19 -38.04,-258.4 -76.16,-517.09 -114.28,-775.77 l -453.84,30.21"
             style="fill:#ed8656;fill-opacity:1;fill-rule:nonzero;stroke:none"
             id="path36" />
          <path
             d="m 2958.11,8669.78 13.95,209.52 86.53,-5.76 228.17,-15.2 137.77,-9.17 c 152.04,-10.12 267.23,-141.83 257.1,-294.04 l -13.94,-209.41 -86.58,5.77 -228.05,15.18 -137.77,9.17 c -152.19,10.14 -267.32,141.73 -257.18,293.94"
             style="fill:#1f3b57;fill-opacity:1;fill-rule:nonzero;stroke:none"
             id="path38" />
          <path
             d="m 2439.9,7427 c -9.01,-135.26 93.37,-252.25 228.66,-261.26 l 556.14,-37.03 c 135.29,-9 252.24,93.38 261.24,228.64 l 74.04,1111.93 c 9.01,135.42 -93.32,252.54 -228.61,261.55 l -556.14,37.03 c -135.29,9 -252.29,-93.51 -261.3,-228.94 L 2439.9,7427"
             style="fill:#f6ab7a;fill-opacity:1;fill-rule:nonzero;stroke:none"
             id="path40" />
          <path
             d="m 2954.49,8880.47 c -96.38,6.41 -184.48,-37.7 -238.69,-109.4 l -94.52,6.3 c -117.91,7.84 -219.77,-81.42 -227.62,-199.31 l -35.12,-527.49 150.1,-9.99 14.28,214.5 c 5.52,82.83 77.5,145.75 160.26,140.23 l 87.65,-5.83 228.14,-15.19 137.65,-9.16 c 152.47,-10.16 283.79,104.95 293.92,257.16 l 15.01,225.48 -491.06,32.7"
             style="fill:#1f3b57;fill-opacity:1;fill-rule:nonzero;stroke:none"
             id="path42" />
          <path
             d="m 2546.92,7900.47 c 4.81,72.19 -49.8,134.36 -122.18,139.17 l -10.7,0.72 c -72.22,4.81 -134.66,-49.57 -139.47,-121.75 l -10.58,-158.89 c -4.8,-72.12 49.87,-134.58 122.08,-139.39 l 10.71,-0.71 c 53.48,-3.56 101.5,25.47 124.96,70"
             style="fill:#f6ab7a;fill-opacity:1;fill-rule:nonzero;stroke:none"
             id="path44" />
          <path
             d="m 5807.86,4834.76 -1009.03,-585.04 459.51,-712.95 61.58,-30.79 551.88,1252.99 -63.94,75.79"
             style="fill:#cbe6f8;fill-opacity:1;fill-rule:nonzero;stroke:none"
             id="path46" />
          <path
             d="m 6094.45,4818.18 -156.32,-54.47 -483.2,-1061.14 -28.42,-225.01 c 0,0 68.69,4.74 78.16,16.58 9.48,11.84 589.78,1324.04 589.78,1324.04"
             style="fill:#284197;fill-opacity:1;fill-rule:nonzero;stroke:none"
             id="path48" />
          <path
             d="m 3870.34,5019.51 158.7,-4.73 c 0,0 577.94,-452.4 743.74,-679.78 165.8,-227.4 493.85,-625.32 518.72,-772.17 6.19,-36.5 10.45,-48.27 11.84,-58.03 2.37,-16.58 0,65.14 0,65.14 0,0 -2.37,248.7 54.48,390.81 56.85,142.12 450.04,874.01 450.04,874.01 0,0 161.06,-61.58 191.85,-66.32 30.79,-4.73 -540.04,-1260.08 -540.04,-1260.08 0,0 -49.74,-62.78 -125.53,-43.82 -75.8,18.94 -114.88,0 -170.55,74.61 -15.64,20.96 -59.21,120.8 -59.21,120.8 L 3870.34,5019.51"
             style="fill:#eff7fd;fill-opacity:1;fill-rule:nonzero;stroke:none"
             id="path50" />
          <path
             d="m 3732.96,5116.63 37.9,2.37 1406.95,-1511.17 c 0,0 11.84,-30.79 7.1,-47.36 -4.73,-16.59 22.7,-71.59 84.09,-76.99 57.57,-5.07 142.2,-18.5 190.67,1.19 47.27,19.21 634.78,1333.51 634.78,1333.51 l 26.06,-11.84 -587.41,-1274.3 c 0,0 14.21,-33.16 -4.74,-45 -18.95,-11.85 -111.32,-54.49 -135.01,-56.85 -23.69,-2.37 -1433,-592.15 -1433,-592.15 l -182.38,71.06 -56.85,90.01 -949.81,999.54 961.65,1117.98"
             style="fill:#3a52ac;fill-opacity:1;fill-rule:nonzero;stroke:none"
             id="path52" />
          <path
             d="m 2735.79,4069.71 997.17,1046.92 1409.32,-1527.75 -1371.42,-646.62 -1099.02,1061.13 63.95,66.32"
             style="fill:#445fb5;fill-opacity:1;fill-rule:nonzero;stroke:none"
             id="path54" />
          <path
             d="m 2254.96,4271.04 c 0,0 78.17,35.53 246.34,108.96 168.17,73.42 284.23,187.12 333.97,182.38 49.74,-4.75 322.13,-161.07 322.13,-161.07 l 397.92,-191.85 c 0,0 75.79,-66.33 56.85,-106.59 -18.95,-40.27 -35.53,-37.9 -71.06,-35.53 -35.53,2.37 -412.14,139.75 -412.14,139.75 l 523.46,-286.6 151.59,-97.11 c 0,0 33.17,-33.17 35.53,-59.22 2.37,-26.05 -9.47,-59.21 -42.63,-56.85 -33.17,2.37 -56.85,-2.36 -92.38,16.58 -35.53,18.95 -274.75,127.9 -274.75,127.9 0,0 262.91,-125.52 310.28,-177.63 47.37,-52.11 45,-75.8 35.53,-101.86 -9.48,-26.05 -45,-30.79 -45,-30.79 l -203.7,106.59 c 0,0 59.21,-33.16 54.48,-47.37 -4.74,-14.22 -23.69,-37.9 -49.74,-35.53 -26.06,2.36 -253.44,78.17 -253.44,78.17 l -220.28,52.1 -286.61,30.8 -357.65,90 c 0,0 -63.95,-16.58 -71.06,4.74 -7.11,21.31 -180.01,360.02 -87.64,450.03"
             style="fill:#f6ab7a;fill-opacity:1;fill-rule:nonzero;stroke:none"
             id="path56" />
          <path
             d="m 3777.97,2909.1 1354.84,627.67 c 0,0 16.57,-40.26 85.26,-71.05 68.69,-30.79 210.81,-23.68 210.81,-23.68 l -1468.53,-604 c 0,0 -175.28,16.58 -182.38,71.06"
             style="fill:#445fb5;fill-opacity:1;fill-rule:nonzero;stroke:none"
             id="path58" />
          <path
             d="m 4798.83,3179.12 c 0,0 21.32,-37.9 0,-92.38 -21.32,-54.48 -26.05,-87.63 -82.9,-106.59 -56.85,-18.94 -61.58,-21.32 -90,2.38 -28.43,23.68 -149.23,116.06 -149.23,116.06 l -94.74,127.9 c 0,0 -28.42,59.22 9.48,73.43 37.89,14.21 71.05,18.94 120.79,-35.53 49.74,-54.48 142.12,-101.85 168.17,-113.7 27.72,-12.6 118.43,28.43 118.43,28.43"
             style="fill:#f6ab7a;fill-opacity:1;fill-rule:nonzero;stroke:none"
             id="path60" />
          <path
             d="m 4659.08,2992 c 0,0 16.59,-42.64 -4.73,-71.06 -21.32,-28.42 -63.95,-63.95 -99.48,-61.58 -35.53,2.36 -262.92,120.79 -262.92,120.79 l -172.9,255.81 -137.38,208.44 c 0,0 14.21,45 42.63,49.74 28.42,4.74 47.37,9.48 80.53,-21.32 33.17,-30.78 149.23,-208.43 149.23,-208.43 l 156.32,-125.54 c 0,0 198.97,-127.91 248.7,-146.85"
             style="fill:#f6ab7a;fill-opacity:1;fill-rule:nonzero;stroke:none"
             id="path62" />
          <path
             d="m 3754.28,3413.61 c 0,0 11.84,63.95 49.74,56.85 37.9,-7.11 101.85,-71.06 170.55,-144.49 68.68,-73.42 104.21,-116.06 104.21,-116.06 l 120.8,-85.27 270.02,-201.33 23.69,-30.79 c 0,0 30.79,-45 -11.85,-56.85 -42.64,-11.84 -71.06,-59.22 -139.75,-28.42 -68.69,30.79 -293.7,198.96 -293.7,198.96 l -142.12,189.49 -100.51,144.48 -51.08,73.43"
             style="fill:#f6ab7a;fill-opacity:1;fill-rule:nonzero;stroke:none"
             id="path64" />
          <path
             d="m 3766.12,3344.92 c -30.76,-1.18 -37.89,-42.64 -37.89,-42.64 l 227.39,-333.96 c 0,0 265.27,-189.5 291.33,-203.7 26.05,-14.21 80.53,-4.74 94.74,42.63 14.22,47.37 -364.76,333.97 -364.76,333.97 0,0 -149.22,206.06 -210.81,203.7"
             style="fill:#f6ab7a;fill-opacity:1;fill-rule:nonzero;stroke:none"
             id="path66" />
          <path
             d="m 1265.81,3941.01 1033.54,350.21 c 54.78,-72.55 92.48,-156.6 105.86,-249.3 l 25.45,-176.04 c -504.34,-377.15 -1068.75,-713.5 -1302.8,-544.19 -466.633,337.34 137.95,619.32 137.95,619.32"
             style="fill:#f6ab7a;fill-opacity:1;fill-rule:nonzero;stroke:none"
             id="path68" />
        </g>
      </g>
      <path
         d="M 11074.7,3251.41 C 9869.9,4245.57 8590.83,6695.88 7291.65,5060.56 6649,4314.46 6097.61,2906.55 5890.36,1913.48 5793.95,1436.97 5769.16,1048.19 5828.9,733.27 h 6086 c 197,458.08 265.5,913.1 219,1219.48 -75.1,565.27 -476.3,746.04 -1059.2,1298.66"
         style="fill:#eff7fd;fill-opacity:1;fill-rule:nonzero;stroke:none"
         id="path70" />
      <path
         d="m 8119.68,2295.33 c 12.25,-330.63 262.57,-1137.36 414.4,-1599.498 h 2355.72 l 421.3,1158.678 c 0,0 891.8,1388.61 -643.5,2309.83 -220.5,132.24 -1366.56,35.25 -1366.56,35.25 0,0 -848.96,-56.83 -1974.81,-1745.57 -35.24,-52.91 775.83,317.36 793.45,-158.69"
         style="fill:#212a53;fill-opacity:1;fill-rule:nonzero;stroke:none"
         id="path72" />
      <path
         d="m 9530.26,4975.42 c 17.62,-88.17 170.18,-355.08 -493.7,-969.78 -476.08,-440.84 1040.34,-493.7 1569.24,176.32 0,0 -811.06,105.81 -546.5,1586.91 198.4,1111.41 -529.04,-793.45 -529.04,-793.45"
         style="fill:#f6ab7a;fill-opacity:1;fill-rule:nonzero;stroke:none"
         id="path74" />
      <path
         d="m 9183.49,3476.67 -317.37,-129.3 c 0,0 -122.4,-56.9 -94.03,-73.46 35.24,-20.59 282.09,55.81 282.09,55.81 0,0 70.53,-29.37 176.33,-99.87 105.8,-70.57 293.9,-58.79 293.9,-58.79 0,0 646.49,-1257.8 1222.49,-1469.36 576,-211.6 658.2,-117.54 740.5,35.27 82.3,152.82 235.1,834.58 -352.6,1010.91 -587.7,176.33 -1481.12,493.7 -1481.12,493.7 l -282.13,296.81 -199.79,8.82 c 0,0 -82.3,-58.78 -129.32,-94.06"
         style="fill:#f6ab7a;fill-opacity:1;fill-rule:nonzero;stroke:none"
         id="path76" />
      <path
         d="m 8718.6,2647.51 c 14.15,-38.96 -5.89,-79.83 -44.86,-79.83 H 6804.75 c -38.98,0 -82.04,40.87 -96.23,79.83 l -474.87,1307.24 c -14.19,38.94 5.88,72.97 44.82,72.97 H 8147.5 c 38.94,0 82.05,-34.03 96.19,-72.97 L 8718.6,2647.51"
         style="fill:#445fb5;fill-opacity:1;fill-rule:nonzero;stroke:none"
         id="path78" />
      <path
         d="m 9397.84,2451.02 c 0,-38.93 -31.58,-70.53 -70.55,-70.53 H 6847.77 c -38.93,0 -70.52,31.6 -70.52,70.53 v 46.13 c 0,38.94 31.59,70.53 70.52,70.53 h 2479.52 c 38.97,0 70.55,-31.59 70.55,-70.53 v -46.13"
         style="fill:#445fb5;fill-opacity:1;fill-rule:nonzero;stroke:none"
         id="path80" />
      <path
         d="M 8313.63,2380.49 H 6973.61 c 0,0 -282.13,-95.49 -17.66,-430.48 264.52,-335.03 537.8,-241.7 687.69,-179.98 149.86,61.7 652.37,522.72 652.37,522.72 l 211.6,-25.16 264.48,124.06 c 0,0 -61.71,35.56 -141.05,0.29 -79.37,-35.24 -123.43,-26.25 -123.43,-26.25 l -79.33,44.16 52.87,61.75 26.46,61.71 -123.42,-71.99 -70.56,-80.83"
         style="fill:#ed8656;fill-opacity:1;fill-rule:nonzero;stroke:none"
         id="path82" />
      <path
         d="m 10028.2,4925.95 c -33.85,214.1 -32.1,489.21 31.1,842.92 198.4,1111.41 -529.04,-793.45 -529.04,-793.45 15.14,-75.57 129.31,-282.53 -256.5,-727.17 313.2,67.38 583.63,320.37 754.44,677.7"
         style="fill:#ed8656;fill-opacity:1;fill-rule:nonzero;stroke:none"
         id="path84" />
      <path
         d="m 9371.55,6244.95 c 0,0 -176.29,-1093.21 -105.76,-1340.05 70.52,-246.88 281.04,-304.47 528.95,35.24 476.06,652.4 458.46,1163.72 317.36,1251.91 -141.01,88.14 -528.94,423.14 -740.55,52.9"
         style="fill:#f6ab7a;fill-opacity:1;fill-rule:nonzero;stroke:none"
         id="path86" />
      <path
         d="m 9671.31,6086.24 c -171.25,-27.52 -440.8,-123.42 -617.09,317.38 -176.33,440.8 211.57,528.94 405.48,299.75 193.98,-229.23 176.36,-334.99 52.94,-229.23 -123.43,105.8 70.52,423.2 246.85,211.59 176.29,-211.59 246.81,-528.96 158.66,-511.34 -88.14,17.66 193.95,370.29 299.75,211.61 105.8,-158.71 176.3,-387.94 52.9,-458.46 -123.4,-70.53 -264.5,176.32 -141,88.18 123.4,-88.18 158.6,-564.22 0,-634.75 -158.71,-70.56 -158.71,52.87 -17.7,193.91 141.1,141.09 -52.8,432.03 -123.38,149.9 -6.07,-24.2 -52.94,-185.14 -52.94,-185.14 l -105.77,-88.14 c 0,0 0,317.37 70.53,431.95 158.96,258.36 154.16,264.36 -229.23,202.79"
         style="fill:#212a53;fill-opacity:1;fill-rule:nonzero;stroke:none"
         id="path88" />
      <path
         d="m 8413.11,2361.67 c 0,0 -953.91,-91.84 -1193.56,-116.04 -158.52,-16.07 -304.91,-82.74 -345.85,-166.93 17.91,-38.62 44.31,-81.6 82.25,-129.67 264.52,-335.01 537.8,-241.19 687.69,-179.48 149.86,61.71 652.37,522.97 652.37,522.97 l 211.71,-25.45 c 9.91,18.26 -76.73,91.43 -94.61,94.6"
         style="fill:#f6ab7a;fill-opacity:1;fill-rule:nonzero;stroke:none"
         id="path90" />
      <path
         d="m 11465.9,1699.02 c -62.4,-43.54 -82.7,-77.32 -184,-63.83 -155.4,20.72 -641.4,298.15 -871.8,473.08 -364.9,277.07 -864.6,1060.05 -884.11,1059.71 34.76,-66.97 661.11,-1260.67 1220.91,-1466.28 526.4,-193.41 640.4,-131.44 719,-2.68"
         style="fill:#ed8656;fill-opacity:1;fill-rule:nonzero;stroke:none"
         id="path92" />
      <path
         d="M 12720,729.422 H 133.031"
         style="fill:none;stroke:#8fb0e1;stroke-width:39.6279;stroke-linecap:butt;stroke-linejoin:miter;stroke-miterlimit:10;stroke-dasharray:none;stroke-opacity:1"
         id="path94" />
      <path
         d="M 4685.06,66.2891 3174.02,373.27 3188.31,956.48 4782.96,718.102 4685.06,66.2891"
         style="fill:#eff7fd;fill-opacity:1;fill-rule:nonzero;stroke:none"
         id="path96" />
      <path
         d="m 3138.45,983.711 1887.13,273.319 591.99,83.83 1700.73,-312.06 c 0,0 138.26,-320.081 -40.21,-638.109 C 7265.24,367.789 4662.95,0 4662.95,0 L 3170.67,347.91 c 0,0 -169.69,97.02 45.48,72.629 184.75,-20.937 1406.56,-334.8906 1406.56,-334.8906 0,0 184.31,276.8006 -23.23,612.3636 -15.27,24.679 -1422.76,231.5 -1422.76,231.5 0,0 -111.71,10.937 -38.27,54.199"
         style="fill:#de1d25;fill-opacity:1;fill-rule:nonzero;stroke:none"
         id="path98" />
      <path
         d="m 7361.81,742.328 c 3.34,136.473 -75.61,247.664 -75.61,247.664 L 4729.47,697.559 C 4855,336.07 4728.33,121.859 4640.36,25.4297 5231.4,103.121 7261.28,371.27 7272.98,390.809 c 43.52,72.761 69.16,145.593 83.06,214.742 2.77,50.719 4.85,99.14 5.77,136.777"
         style="fill:#ee222d;fill-opacity:1;fill-rule:nonzero;stroke:none"
         id="path100" />
      <path
         d="M 3186.11,866.461 4535.42,647.691 3183.91,833.742"
         style="fill:#cbe6f8;fill-opacity:1;fill-rule:nonzero;stroke:none"
         id="path102" />
      <path
         d="m 3183.74,783.902 850.65,-131.453 -848,113.973"
         style="fill:#cbe6f8;fill-opacity:1;fill-rule:nonzero;stroke:none"
         id="path104" />
      <path
         d="M 3177.22,517.77 4396.59,248.238 3179.87,500.289"
         style="fill:#cbe6f8;fill-opacity:1;fill-rule:nonzero;stroke:none"
         id="path106" />
      <path
         d="M 3179.73,620.129 4604.62,378.34 3182.37,602.652"
         style="fill:#cbe6f8;fill-opacity:1;fill-rule:nonzero;stroke:none"
         id="path108" />
      <path
         d="M 4265.83,675.469 2747.73,945.371 V 1528.75 L 4347.74,1329.49 4265.83,675.469"
         style="fill:#eff7fd;fill-opacity:1;fill-rule:nonzero;stroke:none"
         id="path110" />
      <path
         d="m 2697.22,1554.75 1879.87,319.46 589.77,98.29 1707.85,-270.31 c 0,0 146.06,-316.6 -24.57,-638.91 C 6837.85,1040.07 4245.35,608.672 4245.35,608.672 L 2745,919.941 c 0,0 -172.01,92.829 43.69,73.719 185.2,-16.418 1414.34,-300.351 1414.34,-300.351 0,0 177.47,281.242 -38.23,611.611 -15.86,24.3 -1427.99,196.59 -1427.99,196.59 0,0 -111.95,8.19 -39.59,53.24"
         style="fill:#445fb5;fill-opacity:1;fill-rule:nonzero;stroke:none"
         id="path112" />
      <path
         d="m 6925.22,1416.86 c 0,136.53 -81.65,245.74 -81.65,245.74 l -2548.8,-354.95 c 134.35,-358.298 12.95,-575.548 -72.63,-674.111 588.96,92.152 2611.67,409.911 2622.88,429.741 41.74,73.8 65.59,147.24 77.78,216.72 1.53,50.76 2.42,99.22 2.42,136.86"
         style="fill:#3a52ac;fill-opacity:1;fill-rule:nonzero;stroke:none"
         id="path114" />
      <path
         d="M 2747.73,1438.71 4102,1253.04 2746.34,1405.94"
         style="fill:#cbe6f8;fill-opacity:1;fill-rule:nonzero;stroke:none"
         id="path116" />
      <path
         d="m 2747.39,1356.11 853.62,-110.58 -850.55,93.18"
         style="fill:#cbe6f8;fill-opacity:1;fill-rule:nonzero;stroke:none"
         id="path118" />
      <path
         d="M 2747.39,1089.9 3972.99,850.309 2750.46,1072.5"
         style="fill:#cbe6f8;fill-opacity:1;fill-rule:nonzero;stroke:none"
         id="path120" />
      <path
         d="M 2747.39,1192.29 4177.77,985.469 2750.46,1174.89"
         style="fill:#cbe6f8;fill-opacity:1;fill-rule:nonzero;stroke:none"
         id="path122" />
      <path
         d="m 5235.86,1272.04 1300.32,231.18 v 499.7 l -1370.48,-170.69 70.16,-560.19"
         style="fill:#cbe6f8;fill-opacity:1;fill-rule:nonzero;stroke:none"
         id="path124" />
      <path
         d="M 6579.45,2025.18 4969.25,2298.8 4464.09,2383 3001.22,2151.47 c 0,0 -125.11,-271.18 21.05,-547.25 10.52,-19.89 2231.13,-389.4 2231.13,-389.4 l 1285.12,266.61 c 0,0 147.34,79.51 -37.42,63.15 -158.63,-14.07 -1211.45,-257.27 -1211.45,-257.27 0,0 -152.01,240.9 32.74,523.88 13.59,20.82 1223.15,168.39 1223.15,168.39 0,0 95.89,7.01 33.91,45.6"
         style="fill:#f8a20e;fill-opacity:1;fill-rule:nonzero;stroke:none"
         id="path126" />
      <path
         d="m 2957.95,1907.08 c 0,116.93 69.95,210.48 69.95,210.48 l 2183.17,-304.04 c -115.07,-306.89 -11.09,-492.99 62.21,-577.4 -504.48,78.93 -2237.03,351.1 -2246.63,368.1 -35.74,63.2 -56.17,126.12 -66.62,185.62 -1.31,43.49 -2.08,84.99 -2.08,117.24"
         style="fill:#fabb1c;fill-opacity:1;fill-rule:nonzero;stroke:none"
         id="path128" />
      <path
         d="m 6536.18,1925.79 -1160,-159.04 1161.2,130.97"
         style="fill:#a4c8ec;fill-opacity:1;fill-rule:nonzero;stroke:none"
         id="path130" />
      <path
         d="m 6536.48,1855.04 -731.17,-94.72 728.53,79.81"
         style="fill:#a4c8ec;fill-opacity:1;fill-rule:nonzero;stroke:none"
         id="path132" />
      <path
         d="M 6536.48,1627.02 5486.69,1421.79 6533.84,1612.11"
         style="fill:#a4c8ec;fill-opacity:1;fill-rule:nonzero;stroke:none"
         id="path134" />
      <path
         d="m 6536.48,1714.71 -1225.2,-177.16 1222.56,162.26"
         style="fill:#a4c8ec;fill-opacity:1;fill-rule:nonzero;stroke:none"
         id="path136" />
    </g>
  </g>
</svg>
