<svg id="Layer_1" data-name="Layer 1" xmlns="http://www.w3.org/2000/svg" viewBox="0 0 523.55 411.531">
  <g>
    <g>
      <path d="M121.16,383.708c98.272,65.159,239.882,5.659,327.367-73.394,83.967-75.874,124.8-272.893-26.736-305.143C358.694-8.257,330,5.747,283.532,32.415c-37.514,21.53-89.06,11.339-126.34-7.96C104.478-2.833,39.513,36.857,11.7,96.711-22.373,170.061,19.112,316.044,121.16,383.708Z" fill="#fff" opacity="0.08"></path>
      <path d="M121.16,383.708c98.272,65.159,239.882,5.659,327.367-73.394,83.967-75.874,124.8-272.893-26.736-305.143C358.694-8.257,330,5.747,283.532,32.415c-37.514,21.53-89.06,11.339-126.34-7.96C104.478-2.833,39.513,36.857,11.7,96.711-22.373,170.061,19.112,316.044,121.16,383.708Z" fill="#367cff" opacity="0.1"></path>
    </g>
    <g>
      <g>
        <path d="M138.684,63.519s-2.147,32.216-9.394,43.9c-20.866,33.648-26.911,71.5-6.016,91.277s154.17,20.051,164.267-25.436c8.5-38.294-9.741-42.412-14.18-74-2.008-14.294-7.533-44.267-7.533-44.267" fill="#0a0a0a"></path>
        <path id="sk" d="M253.044,166.6c-.23-.03-2.783,42.33-51.994,38.637-34.068-2.552-46.215-38.7-46.995-38.7,3.673-.781,9.858-1.916,11.489-2.786,5.365-2.883,12-5.882,13.732-16.3,1-6-.7-36.722-.174-42.8L231.4,116.324c-.731,12.83-5.845,42.575,12.08,47.839C246.458,165.034,249.671,165.834,253.044,166.6Z" fill="#E98862"></path>
        <path id="sh" d="M232.129,152.007a37.849,37.849,0,0,1-1.573-8.116,86.576,86.576,0,0,1,.342-18.878A57.328,57.328,0,0,1,202,112.351c-.971,3.586-6.312,19.256-4.833,22.664C199.958,141.457,213.091,152.007,232.129,152.007Z" fill="#0c0c0c" opacity="0.5"></path>
        <path d="M225.367,138.809c-20.618,2-47.294-6.252-52.82-33.708l-4.986-24.774c-5.526-27.456,4.415-52.617,30.266-57.82h0c25.852-5.2,49.654,13.166,55.18,40.622L255.215,74.1C257.335,84.632,262.152,135.25,225.367,138.809Z" fill="#E98862"></path>
        <path d="M240.032,105.974a33.814,33.814,0,0,1-21.721,3.061,1.369,1.369,0,0,0-1.451,2.009c2.2,3.877,7.418,10.5,16.37,7.8,5.78-1.744,7.965-7.691,8.775-11.369A1.368,1.368,0,0,0,240.032,105.974Z" fill="#fff"></path>
        <circle cx="240.451" cy="72.944" r="3.237" fill="#0c0c0c"></circle>
        <circle cx="209.347" cy="78.39" r="3.237" fill="#0c0c0c"></circle>
        <ellipse cx="211.725" cy="98.323" rx="6.187" ry="4.538" transform="translate(-10.158 25.778) rotate(-6.804)" fill="#0c0c0c" opacity="0.1"></ellipse>
        <path d="M248.113,92.881c.3,2.485,3.295,4.172,6.688,3.772a8.533,8.533,0,0,0,1.723-.391c.158-2.963.167-5.814.081-8.453a7.805,7.805,0,0,0-2.884-.169C250.328,88.041,247.819,90.385,248.113,92.881Z" fill="#0c0c0c" opacity="0.1"></path>
        <path d="M233.121,100.562l.05-.008a29.031,29.031,0,0,0,3.1-.827c1.518-.508,3.5-1.342,3.228-2.715-.314-1.565-8-17.582-8.872-19.4a.666.666,0,1,0-1.2.577c3.277,6.821,8.555,18.035,8.767,19.089-.166.491-2.684,1.45-5.283,1.974a.665.665,0,0,0,.212,1.313Z" fill="#0c0c0c" opacity="0.5"></path>
        <path d="M146.934,89.22l23.176-4.527c17.507-7.321,22.474-37.832,22.474-37.832s21.606,20.576,73.244,8.133c0,0-11.217-72.085-87.465-50.2-24.585,7.055-42,32.114-39.41,65.307C140.768,93.358,146.934,89.22,146.934,89.22Z" fill="#0a0a0a"></path>
        <path d="M175.836,113.143c-7.856,1.581-15.916-5.542-17.5-13.4s3.916-13.471,11.772-15.052l5.108,4.449,7.373,22.641Z" fill="#E98862"></path>
        <path d="M236.2,64.838a13.618,13.618,0,0,1,6.662-2.447,12.027,12.027,0,0,1,3.6.2,14.577,14.577,0,0,1,3.451,1.169l.034.016a.509.509,0,0,0,.433-.922,15.668,15.668,0,0,0-3.676-1.383,13.218,13.218,0,0,0-3.937-.349,14.992,14.992,0,0,0-7.5,2.5.764.764,0,1,0,.86,1.264l.018-.013Z" fill="#0c0c0c"></path>
        <path d="M215.025,67.764a15.007,15.007,0,0,0-7.888.558,13.227,13.227,0,0,0-3.5,1.829,15.67,15.67,0,0,0-2.866,2.685.509.509,0,0,0,.752.686l.027-.028a14.559,14.559,0,0,1,2.74-2.4,12.011,12.011,0,0,1,3.254-1.563,13.639,13.639,0,0,1,7.092-.289l.058.014a.764.764,0,0,0,.36-1.485Z" fill="#0c0c0c"></path>
        <path d="M170.126,84.313c15.579-5.8,20.749-16.558,22.341-24.564a39.039,39.039,0,0,0-.283-16.135l-.482.132a38.529,38.529,0,0,1,.272,15.924c-1.572,7.875-6.668,18.461-22.023,24.175Z" fill="#0c0c0c"></path>
      </g>
      <path d="M314.4,192.735l63.715,169.413-52.88-14.959,120.265-89.7,42.846,58.588L366.416,403.5a35.171,35.171,0,0,1-52.539-14.171l-.341-.788L240.346,223Z" fill="#367cff"></path>
      <path id="b_1_b" d="M200.132,194.643c-34.092-1.607-35.527-30.544-35.527-30.544s-16.892,1.092-28.121,2.611c-18.384,2.488-30.512,8.722-40.164,18.373-8.978,8.978-14.444,18.692-8.66,80.711C91.848,310.7,88.9,409.473,88.9,409.473h205.75s12.338-129.465,14.058-149.679c3.282-38.59,16.724-60.34-2.064-80.218-13.625-14.416-48.8-15.477-62.958-15.474C243.456,164.1,246.56,196.831,200.132,194.643Z" fill="#367cff"></path>
      <g>
        <path d="M397.917,201.088c-12.789-21.6-41.731-24.194-63.331-11.4l-1.369.85-.918-1.479c-13.22-21.339-40.17-32.469-61.509-19.249a45.452,45.452,0,0,0-14.7,62.574l43.917,69.377a10.145,10.145,0,0,0,13.865,3.229l69.7-42.628A45.45,45.45,0,0,0,397.917,201.088Z" fill="#367cff"></path>
        <path d="M397.917,201.088c-12.789-21.6-41.731-24.194-63.331-11.4l-1.369.85-.918-1.479c-13.22-21.339-40.17-32.469-61.509-19.249a45.452,45.452,0,0,0-14.7,62.574l43.917,69.377a10.145,10.145,0,0,0,13.865,3.229l69.7-42.628A45.45,45.45,0,0,0,397.917,201.088Z" fill="#fff" opacity="0.6"></path>
      </g>
      <g>
        <path d="M324.283,245.759c-22.676-13.667-50.853-1.607-64.52,21.069l-.847,1.474-1.592-.915c-22.946-13.21-53.541-10.073-66.75,12.873A47.94,47.94,0,0,0,208.2,345.726l75.473,42.48a10.7,10.7,0,0,0,14.492-3.934l43.42-74.435A47.939,47.939,0,0,0,324.283,245.759Z" fill="#367cff"></path>
        <path d="M324.283,245.759c-22.676-13.667-50.853-1.607-64.52,21.069l-.847,1.474-1.592-.915c-22.946-13.21-53.541-10.073-66.75,12.873A47.94,47.94,0,0,0,208.2,345.726l75.473,42.48a10.7,10.7,0,0,0,14.492-3.934l43.42-74.435A47.939,47.939,0,0,0,324.283,245.759Z" fill="#fff" opacity="0.5"></path>
      </g>
      <path d="M304.511,277.913a.5.5,0,0,1,1,.063L301.326,344.8a.5.5,0,0,1-.459.468c-.023,0-.047,0-.071,0a.5.5,0,0,1-.468-.53" fill="#0c0c0c"></path>
      <g>
        <path d="M460.484,271.915a5.419,5.419,0,0,1,6.082-4.99,5.626,5.626,0,0,1,4.707,6.069l-.522,7.3,10.716-19.664c1.316-2.5,4.53-4.728,7.237-3.067,2.278,1.2,6.571.547,8.153,3.555.027.01,8.3,29.3,7.08,31.624h0c-5.177,9.842-22.586,16.4-33.652,15.3l-17.416-1.745Z" fill="#E98862"></path>
        <g opacity="0.1">
          <path d="M460.484,271.915a5.419,5.419,0,0,1,6.082-4.99,5.626,5.626,0,0,1,4.707,6.069l-.522,7.3,10.716-19.664c1.316-2.5,4.53-4.728,7.237-3.067,2.278,1.2,6.571.547,8.153,3.555.027.01,8.3,29.3,7.08,31.624h0c-5.177,9.842-22.586,16.4-33.652,15.3l-17.416-1.745Z" fill="#0c0c0c"></path>
        </g>
        <path d="M479.556,249.654c-20-25.3-57.3-23.627-82.6-3.626l-1.6,1.318-1.423-1.726c-20.5-24.9-56.737-34.431-81.634-13.926a58.4,58.4,0,0,0-7.952,82.208L372.2,394.687a13.037,13.037,0,0,0,18.211,1.725l81.413-66.272A58.4,58.4,0,0,0,479.556,249.654Z" fill="#0cbc8b"></path>
        <path d="M480.457,286.031a4.437,4.437,0,0,1,3.229-4.277c-.033-.071-.163-.22-.037-.27L480,280.838a4.517,4.517,0,0,1-3.825-4.539,4.35,4.35,0,0,1,4.12-4.131c-.025-.035-.017-.084-.03-.126l-1.5-.266a4.46,4.46,0,0,1-3.755-4.211,4.358,4.358,0,0,1,5.115-4.391l3.458.613c0-.019-.016-.033-.013-.052s.029-.038.036-.06a4.35,4.35,0,0,1-2.6-4.766c.279-2.536,3.275-3.48,5.511-3.084l6.945,1.8a6.72,6.72,0,0,1,4.664,4.3c3.143,9.049,10.789,32.881,3.653,31.617l-17.565-3.112A4.716,4.716,0,0,1,480.457,286.031Z" fill="#E98862"></path>
      </g>
      <g>
        <path d="M268.329,319.794l27.282-20.707a5.421,5.421,0,0,1,7.87,1.44,5.608,5.608,0,0,1-1.541,7.363l-5.85,4.44,24.806-5.518c2.747-.661,6.542.284,7.081,3.414a5.419,5.419,0,0,1-2.85,6.114.354.354,0,0,1,.03.076.442.442,0,0,1,0,.063l4.236-1.02a5.425,5.425,0,0,1,6.691,5.119,5.549,5.549,0,0,1-4.349,5.465l-1.8.435a.479.479,0,0,1-.064.163,5.418,5.418,0,0,1,5.385,4.5,5.593,5.593,0,0,1-4.325,6.243l-4.477,1.078a.5.5,0,0,1,.3.345.482.482,0,0,1-.026.277,5.424,5.424,0,0,1,4.016,5.211,5.546,5.546,0,0,1-4.352,5.33l-37.781,9.1a27.291,27.291,0,0,1-28.591-10.66h0a18.01,18.01,0,0,1,3.762-24.821Z" fill="#E98862"></path>
        <g opacity="0.2">
          <path d="M300.6,321.924a.5.5,0,0,0,.594.368l23.584-5.278a.5.5,0,0,0-.219-.977l-23.584,5.278a.5.5,0,0,0-.378.6Z" fill="#0c0c0c"></path>
        </g>
        <g opacity="0.2">
          <path d="M302.641,332.39a.5.5,0,0,0,.595.367l26.319-5.89a.5.5,0,0,0,.379-.6.517.517,0,0,0-.6-.378l-26.32,5.89a.5.5,0,0,0-.378.6Z" fill="#0c0c0c"></path>
        </g>
        <g opacity="0.2">
          <path d="M304.786,343.737a.5.5,0,0,0,.595.367l21-4.7a.5.5,0,0,0-.219-.976l-21,4.7a.5.5,0,0,0-.378.6Z" fill="#0c0c0c"></path>
        </g>
      </g>
      <path id="b_4_b" d="M280.044,369.339,106.657,408.753a37.5,37.5,0,0,1-41.038-43.5l19.842-159.6a37.5,37.5,0,1,1,73.961,12.443l-9.555,114.235,120.464-27.261Z" fill="#367cff"></path>
      <g id="b_4_st">
        <path d="M125.49,336.819a.5.5,0,0,1-.073-1l24.161-5.158a.492.492,0,0,1,.568.42.5.5,0,0,1-.42.568l-24.161,5.159A.474.474,0,0,1,125.49,336.819Z" fill="#0c0c0c"></path>
      </g>
      <g id="b_4_st-2" data-name="b_4_st">
        <path d="M111.859,409.473a.5.5,0,0,1-.065-1l167.162-39.371-9.472-63.3L149.739,331.656a.5.5,0,0,1-.559-.579l6.717-65.27a.492.492,0,0,1,.576-.41.5.5,0,0,1,.41.576l-6.6,64.6,119.434-25.87a.5.5,0,0,1,.385.05.505.505,0,0,1,.233.311l9.713,64.273a.5.5,0,0,1-.353.6L111.924,409.469A.482.482,0,0,1,111.859,409.473Z" fill="#0c0c0c"></path>
      </g>
      <g>
        <path d="M495.251,118.335c-6.6-11.151-21.543-12.49-32.694-5.888l-.707.439-.473-.764c-6.825-11.016-20.738-16.761-31.754-9.937a23.464,23.464,0,0,0-7.589,32.3L444.706,170.3a5.238,5.238,0,0,0,7.158,1.667l35.98-22.006A23.464,23.464,0,0,0,495.251,118.335Z" fill="#0cbc8b"></path>
        <path d="M495.251,118.335c-6.6-11.151-21.543-12.49-32.694-5.888l-.707.439-.473-.764c-6.825-11.016-20.738-16.761-31.754-9.937a23.464,23.464,0,0,0-7.589,32.3L444.706,170.3a5.238,5.238,0,0,0,7.158,1.667l35.98-22.006A23.464,23.464,0,0,0,495.251,118.335Z" fill="#fff" opacity="0.2"></path>
      </g>
      <g>
        <path d="M396.715,13.166c-5.995-3.509-13.347-.25-16.855,5.745l-.218.389-.42-.234c-6.065-3.388-14.08-2.462-17.468,3.6A12.577,12.577,0,0,0,366.6,39.783l19.943,10.889a2.808,2.808,0,0,0,3.789-1.081l11.139-19.674A12.577,12.577,0,0,0,396.715,13.166Z" fill="#367cff"></path>
        <path d="M396.715,13.166c-5.995-3.509-13.347-.25-16.855,5.745l-.218.389-.42-.234c-6.065-3.388-14.08-2.462-17.468,3.6A12.577,12.577,0,0,0,366.6,39.783l19.943,10.889a2.808,2.808,0,0,0,3.789-1.081l11.139-19.674A12.577,12.577,0,0,0,396.715,13.166Z" fill="#fff" opacity="0.5"></path>
      </g>
    </g>
    <path d="M491.642,410.473H50.444a1,1,0,0,1,0-2h441.2a1,1,0,0,1,0,2Z" fill="#292a2e"></path>
  </g>
</svg>